# xmcd
#
# Track frame offsets:
#	150
#	16211
#	27040
#	41641
#	53551
#	63485
#	78241
#	91945
#	102703
#	112499
#	126546
#	139478
#
# Disc length: 1983 seconds
#
# Revision: 1
# Processed by: cddbd v1.5.1PL2 Copyright (c) Steve Scherf et al.
# Submitted via: dBpowerAMP V4.0
#
DISCID=aa07bd0c
DTITLE=Various Artist - A Country Music Christmas
DYEAR=1996
DGENRE=Christmas
TTITLE0=Blue Christmas
TTITLE1=Jingle Bells
TTITLE2=Christmas Song
TTITLE3=God Rest Ye Merry Gentlemen
TTITLE4=Winter Wonderland
TTITLE5=The Little Drummer Boy
TTITLE6=It Came Upon A Midnight Clear
TTITLE7=Silent Night
TTITLE8=O Come All Ye Faithful
TTITLE9=The Twelve Days Of Christmas
TTITLE10=Oh Holy Night
TTITLE11=We Wish You A Merry Christmas
EXTD=(C) 1996 UAV Corp.\nISBN 1-57642-537-1\n
EXTT0=
EXTT1=
EXTT2=
EXTT3=
EXTT4=
EXTT5=
EXTT6=
EXTT7=
EXTT8=
EXTT9=
EXTT10=
EXTT11=
PLAYORDER=
